<svg width="25" height="25" viewBox="0 0 25 25" fill="none" xmlns="http://www.w3.org/2000/svg">
<g clip-path="url(#clip0_15064_3453)">
<path d="M12.5 0C5.59639 0 0 5.59639 0 12.5C0 19.4036 5.59639 25 12.5 25C19.4036 25 25 19.4036 25 12.5C25 5.59639 19.4036 0 12.5 0Z" fill="#40B3E0"/>
<path d="M18.5822 7.18983L16.3495 18.4466C16.3495 18.4466 16.0373 19.2272 15.1786 18.8525L10.0265 14.9025L8.15303 13.9971L4.99932 12.9353C4.99932 12.9353 4.51533 12.7637 4.46846 12.389C4.42158 12.0142 5.01494 11.8113 5.01494 11.8113L17.5517 6.89335C17.5517 6.89335 18.5821 6.44061 18.5821 7.19003" fill="white"/>
<path d="M9.63086 18.32C9.63086 18.32 9.48047 18.306 9.29297 17.7126C9.10576 17.1193 8.15332 13.9969 8.15332 13.9969L15.7254 9.18828C15.7254 9.18828 16.1626 8.92285 16.147 9.18828C16.147 9.18828 16.225 9.23516 15.9907 9.45371C15.7566 9.67236 10.0425 14.8088 10.0425 14.8088" fill="#D2E5F1"/>
<path d="M12.0022 16.4172L9.96445 18.2752C9.96445 18.2752 9.80508 18.3961 9.63086 18.3203L10.0211 14.8691" fill="#B5CFE4"/>
</g>
<defs>
<clipPath id="clip0_15064_3453">
<rect width="25" height="25" fill="white"/>
</clipPath>
</defs>
</svg>
